<svg width="30" height="30" viewBox="0 0 30 30" fill="none" xmlns="http://www.w3.org/2000/svg">
<path d="M23.1053 24.5421H6.89474C3.63937 24.5421 1 21.9028 1 18.6474V11.8947C1 8.63937 3.63937 6 6.89474 6H23.1053C26.3606 6 29 8.63937 29 11.8947V18.6474C29 21.9028 26.3606 24.5421 23.1053 24.5421ZM27.1644 12.7789C27.1644 9.84926 25.1507 7.94767 22.2211 7.94767H7.77895C4.84926 7.94767 2.91149 9.84926 2.91149 12.7789V17.7632C2.91149 20.6929 4.84926 22.54 7.77895 22.54H22.2211C25.1507 22.54 27.1644 20.6929 27.1644 17.7632V12.7789Z" fill="white"/>
</svg>

